<?xml version="1.0" standalone="no"?>
<!DOCTYPE svg PUBLIC "-//W3C//DTD SVG 20010904//EN"
 "http://www.w3.org/TR/2001/REC-SVG-20010904/DTD/svg10.dtd">
<svg version="1.0" xmlns="http://www.w3.org/2000/svg"
 width="512.000000pt" height="512.000000pt" viewBox="0 0 512.000000 512.000000"
 preserveAspectRatio="xMidYMid meet">

<g transform="translate(0.000000,512.000000) scale(0.100000,-0.100000)"
fill="#000000" stroke="none">
<path d="M2380 5110 c-308 -24 -595 -97 -870 -220 -104 -47 -252 -127 -315
-170 l-40 -27 3 -232 3 -231 224 0 224 0 3 258 c3 257 3 257 30 312 35 71 107
143 178 177 48 24 68 27 150 28 85 0 101 -3 154 -29 76 -37 140 -101 174 -174
27 -57 27 -59 30 -314 l3 -258 224 0 225 0 1 33 c0 17 4 136 8 262 l6 230 35
63 c39 73 92 124 170 161 48 22 68 26 150 26 84 0 101 -4 150 -28 72 -37 141
-105 176 -176 l29 -56 3 -257 3 -258 225 0 224 0 0 234 0 235 -82 51 c-426
262 -992 398 -1498 360z"/>
<path d="M4690 2560 l0 -1414 30 47 c199 314 329 678 376 1052 21 170 21 460
0 630 -47 374 -177 738 -376 1052 l-30 47 0 -1414z"/>
<path d="M372 3880 c-145 -232 -266 -548 -321 -831 -59 -308 -59 -670 0 -978
55 -285 184 -615 331 -847 l43 -69 3 702 c1 387 1 1019 0 1405 l-3 703 -53
-85z"/>
<path d="M2490 2604 c-14 -2 -55 -9 -92 -15 l-68 -11 0 -229 0 -229 230 0 230
0 0 229 0 228 -57 11 c-67 13 -207 22 -243 16z"/>
<path d="M891 2464 c-34 -14 -61 -63 -61 -109 0 -25 -1 -25 -22 -11 -33 24
-82 20 -115 -8 l-28 -24 -3 -149 -4 -148 -37 -17 c-59 -28 -71 -59 -71 -183 0
-121 13 -160 59 -188 16 -9 48 -17 70 -17 23 0 41 -3 41 -7 0 -48 73 -777 80
-804 19 -69 89 -111 155 -95 40 10 94 64 100 99 3 18 21 203 41 411 19 209 37
383 40 388 3 4 19 8 36 8 43 0 91 26 111 59 13 23 17 53 17 141 0 127 -11 156
-67 187 l-33 18 0 88 c0 93 -14 138 -49 157 -28 14 -74 12 -97 -5 -10 -8 -22
-15 -26 -15 -5 0 -8 40 -8 89 0 70 -4 93 -17 110 -26 31 -73 42 -112 25z"/>
<path d="M4173 2472 c-37 -5 -73 -58 -73 -104 l0 -40 -25 16 c-38 25 -82 20
-116 -13 l-29 -29 0 -140 0 -140 -37 -19 c-68 -36 -78 -59 -78 -191 0 -78 4
-125 13 -140 19 -34 72 -62 115 -62 21 0 39 -5 42 -12 2 -7 20 -190 40 -407
25 -268 41 -403 51 -423 46 -89 183 -87 229 3 11 21 25 127 45 347 17 174 35
356 41 405 l12 87 36 0 c48 0 99 33 117 75 9 22 14 69 14 127 0 111 -17 153
-72 183 l-38 20 0 98 c0 96 -1 99 -29 128 -34 33 -83 39 -119 13 l-22 -15 0
85 c0 75 -3 88 -25 114 -25 30 -52 40 -92 34z"/>
<path d="M2035 2423 c-74 -59 -158 -154 -204 -230 l-41 -68 147 -3 c80 -1 148
-1 150 1 2 2 2 80 1 172 l-3 168 -50 -40z"/>
<path d="M3030 2290 l0 -170 151 0 151 0 -28 48 c-46 81 -91 137 -163 205
-118 111 -111 116 -111 -83z"/>
<path d="M1716 1864 c-3 -9 -6 -110 -6 -225 l0 -209 190 0 190 0 0 225 0 225
-184 0 c-158 0 -185 -2 -190 -16z"/>
<path d="M2330 1655 l0 -225 230 0 230 0 0 225 0 225 -230 0 -230 0 0 -225z"/>
<path d="M3030 1655 l0 -225 190 0 190 0 0 209 c0 115 -3 216 -6 225 -5 14
-32 16 -190 16 l-184 0 0 -225z"/>
<path d="M1710 955 l0 -225 190 0 190 0 0 225 0 225 -190 0 -190 0 0 -225z"/>
<path d="M2330 955 l0 -225 230 0 230 0 0 225 0 225 -230 0 -230 0 0 -225z"/>
<path d="M3030 955 l0 -225 190 0 190 0 0 225 0 225 -190 0 -190 0 0 -225z"/>
<path d="M1710 316 l0 -173 108 -32 c122 -35 229 -61 255 -61 16 0 17 17 17
220 l0 220 -190 0 -190 0 0 -174z"/>
<path d="M2330 251 l0 -238 77 -7 c97 -8 209 -8 306 0 l77 7 0 238 0 239 -230
0 -230 0 0 -239z"/>
<path d="M3030 270 c0 -203 1 -220 18 -220 25 0 132 26 255 61 l107 32 0 173
0 174 -190 0 -190 0 0 -220z"/>
</g>
</svg>
